<?xml version="1.0" encoding="UTF-8"?>
<svg id="Layer_1" xmlns="http://www.w3.org/2000/svg" version="1.1" viewBox="0 0 459.5 129.1">
  <!-- Generator: Adobe Illustrator 29.6.1, SVG Export Plug-In . SVG Version: 2.1.1 Build 9)  -->
  <defs>
    <style>
      .st0 {
        fill: #375ddc;
      }
    </style>
  </defs>
  <g>
    <path class="st0" d="M343.3,90.3h80.8c1.6,0,3,2.1,3,4.6s-1.3,4.6-3,4.6h-80.8c-1.6,0-3-2.1-3-4.6s1.3-4.6,3-4.6Z"/>
    <path class="st0" d="M325.7,119.3h80.8c1.6,0,3,2.1,3,4.6s-1.3,4.6-3,4.6h-80.8c-1.6,0-3-2.1-3-4.6s1.3-4.6,3-4.6Z"/>
    <g>
      <line class="st0" x1="456.6" y1="66.3" x2="361" y2="65.9"/>
      <path class="st0" d="M361,61.3l95.6.4c1.6,0,3,2.1,3,4.6s-1.3,4.6-3,4.6l-95.6-.4c-1.6,0-3-2.1-3-4.6s1.3-4.6,3-4.6Z"/>
    </g>
    <path class="st0" d="M344.4,29h80.8c1.6,0,3,2.1,3,4.6s-1.3,4.6-3,4.6h-80.8c-1.6,0-3-2.1-3-4.6s1.3-4.6,3-4.6Z"/>
    <path class="st0" d="M324.7,1.7h86.7c1.6,0,3,2.1,3,4.6s-1.3,4.6-3,4.6h-86.7c-1.6,0-3-2.1-3-4.6s1.3-4.6,3-4.6Z"/>
  </g>
  <g>
    <path class="st0" d="M38.8,0h6.3v19h-3.1c-7.8,0-11.1,3.3-11.1,11.1v10.1h11.4v18.5h-11.4v68.8H10.4V58.6H0v-18.5h10.4v-12.2C10.4,10.6,20.6,0,38.8,0Z"/>
    <path class="st0" d="M51.2,83.9c0-26.9,19.7-45.4,43.4-45.4s22,4.3,28.2,12.2l.2-10.6h18.2v87.3h-18.2l-.2-10.6c-6.3,7.9-16.8,12.2-28.2,12.2-23.8,0-43.4-18.7-43.4-45.2ZM97.2,110.3c13.9,0,24.9-9.7,24.9-26.4s-11.1-26.6-24.9-26.6-25.6,10.7-25.6,26.6,10.9,26.4,25.6,26.4Z"/>
    <path class="st0" d="M154.9,124.7l39.5-66h-36.8l2.8-18.5h64.4v2.8l-39.5,66h39.8l-3,18.5h-67.2v-2.8Z"/>
    <path class="st0" d="M239.6,0h20.5v25.6h-20.5V0ZM239.6,40.1h20.5v87.3h-20.5V40.1Z"/>
    <path class="st0" d="M280.3,0h20.5v127.5h-20.5V0Z"/>
  </g>
</svg>