<?xml version="1.0" encoding="UTF-8"?>
<svg id="Layer_1" data-name="Layer 1" xmlns="http://www.w3.org/2000/svg" viewBox="0 0 459.52 129.11">
  <defs>
    <style>
      .cls-1 {
        fill: #20b8e2;
      }

      .cls-2 {
        fill: #fff;
      }
    </style>
  </defs>
  <g>
    <path class="cls-1" d="M343.34,90.27h80.77c1.64,0,2.96,2.06,2.96,4.61s-1.33,4.61-2.96,4.61h-80.77c-1.64,0-2.96-2.06-2.96-4.61s1.33-4.61,2.96-4.61Z"/>
    <path class="cls-1" d="M325.74,119.26h80.77c1.64,0,2.96,2.06,2.96,4.61s-1.33,4.61-2.96,4.61h-80.77c-1.64,0-2.96-2.06-2.96-4.61s1.33-4.61,2.96-4.61Z"/>
    <g>
      <line class="cls-1" x1="456.56" y1="66.27" x2="360.95" y2="65.88"/>
      <path class="cls-1" d="M360.95,61.27l95.61.39c1.64,0,2.96,2.06,2.96,4.61s-1.33,4.61-2.96,4.61l-95.61-.39c-1.64,0-2.96-2.06-2.96-4.61s1.33-4.61,2.96-4.61Z"/>
    </g>
    <path class="cls-1" d="M344.38,29.05h80.77c1.64,0,2.96,2.06,2.96,4.61s-1.33,4.61-2.96,4.61h-80.77c-1.64,0-2.96-2.06-2.96-4.61s1.33-4.61,2.96-4.61Z"/>
    <path class="cls-1" d="M324.7,1.67h86.7c1.64,0,2.96,2.06,2.96,4.61s-1.33,4.61-2.96,4.61h-86.7c-1.64,0-2.96-2.06-2.96-4.61s1.33-4.61,2.96-4.61Z"/>
  </g>
  <g>
    <path class="cls-2" d="M38.8,0h6.27v18.99h-3.14c-7.76,0-11.06,3.3-11.06,11.06v10.07h11.39v18.49h-11.39v68.85H10.4V58.61H0v-18.49h10.4v-12.22C10.4,10.57,20.64,0,38.8,0Z"/>
    <path class="cls-2" d="M51.18,83.87c0-26.91,19.65-45.4,43.42-45.4,11.39,0,21.96,4.29,28.23,12.22l.16-10.57h18.16v87.34h-18.16l-.16-10.57c-6.27,7.92-16.84,12.22-28.23,12.22-23.77,0-43.42-18.66-43.42-45.24ZM97.24,110.29c13.87,0,24.93-9.74,24.93-26.42s-11.06-26.58-24.93-26.58c-14.69,0-25.59,10.73-25.59,26.58s10.9,26.42,25.59,26.42Z"/>
    <path class="cls-2" d="M154.86,124.65l39.46-66.04h-36.82l2.81-18.49h64.39v2.81l-39.46,66.04h39.79l-2.97,18.49h-67.2v-2.81Z"/>
    <path class="cls-2" d="M239.56,0h20.47v25.59h-20.47V0ZM239.56,40.12h20.47v87.34h-20.47V40.12Z"/>
    <path class="cls-2" d="M280.34,0h20.47v127.46h-20.47V0Z"/>
  </g>
</svg>