<?xml version="1.0" encoding="UTF-8"?>
<svg id="svg1936" xmlns="http://www.w3.org/2000/svg" xmlns:xlink="http://www.w3.org/1999/xlink" xmlns:svg="http://www.w3.org/2000/svg" version="1.1" viewBox="0 0 603 182">
  <!-- Generator: Adobe Illustrator 29.4.0, SVG Export Plug-In . SVG Version: 2.1.0 Build 152)  -->
  <defs>
    <style>
      .st0 {
        fill: #ffa000;
      }

      .st1 {
        opacity: .5;
      }

      .st1, .st2 {
        isolation: isolate;
      }

      .st3 {
        fill: url(#linear-gradient);
      }

      .st2 {
        fill: #a52714;
        opacity: .2;
      }

      .st4 {
        fill: #fff;
        fill-opacity: .2;
      }

      .st5 {
        fill: #f57c00;
      }

      .st6 {
        fill: #ffca28;
      }
    </style>
    <linearGradient id="linear-gradient" x1="51.2" y1="340.5" x2="52.6" y2="339.6" gradientTransform="translate(-4864 44649.9) scale(95 -131)" gradientUnits="userSpaceOnUse">
      <stop offset="0" stop-color="#fff" stop-opacity=".1"/>
      <stop offset=".1" stop-color="#fff" stop-opacity="0"/>
      <stop offset=".6" stop-color="#fff" stop-opacity="0"/>
      <stop offset="1" stop-color="#fff" stop-opacity="0"/>
    </linearGradient>
  </defs>
  <path class="st1" d="M183.7,141.8h-11V57h49.9v10.4h-38.9v27.8h35.1v10.2h-35.1v36.4h0ZM243.3,69.2c-2.6,2.6-6.7,3-9.8,1s-4.3-6-2.9-9.4,5.1-5.3,8.7-4.6,6.3,3.9,6.3,7.6c0,2.1-.8,4-2.3,5.4h0,0ZM243.3,141.8h-11v-58h11v58h0ZM267.3,141.8h-11v-58h10.5v9.5h.5c1.3-3.3,3.7-6.1,6.9-7.8,3-1.9,6.5-3,10.1-3.1,2.8,0,5.6.4,8.2,1.4l-4.2,10.2c-1.9-.6-3.9-.9-5.8-.8-4,0-7.9,1.7-10.6,4.7-3.1,3.1-4.6,7.2-4.6,12.3v31.7s0,0,0,0ZM322.6,143.7c-8.8,0-16-2.9-21.5-8.8-5.5-5.8-8.3-13.2-8.3-22.1-.2-8,2.7-15.8,8.1-21.8,5.1-6,12.7-9.3,20.6-9.1,8.7,0,15.6,2.8,20.8,8.4,5.2,5.6,7.8,13.1,7.8,22.5v2h-46.3c.3,5.8,2.3,10.5,5.9,13.9,3.4,3.3,8,5.1,12.7,5.1,7.9,0,13.2-3.3,16-9.9l9.8,4c-2,4.6-5.3,8.5-9.4,11.3-4.4,3-9.7,4.5-16.1,4.5h0ZM338.3,105.7c-.2-3.3-1.8-6.5-4.6-9.5-2.8-3-7-4.5-12.6-4.4-3.9,0-7.6,1.3-10.6,3.8-3.1,2.7-5.2,6.2-6.1,10.2h33.9c0,0,0,0,0,0ZM389.7,143.7c-4.2,0-8.3-.9-11.9-2.8-3.2-1.6-6-4.1-7.9-7.1h-.5v8h-10.5V57h11v26.8l-.5,8h.5c2-3,4.7-5.5,7.9-7.1,3.7-1.9,7.8-2.9,11.9-2.8,7.6,0,14.1,3,19.6,8.9,5.5,5.9,8.2,13.3,8.2,22,0,8.8-2.7,16.1-8.2,22s-12,8.9-19.6,8.8h0ZM387.9,133.7c5,0,9.8-2.1,13.1-5.7,3.7-3.8,5.5-8.9,5.5-15.2s-1.8-11.4-5.5-15.2c-3.4-3.6-8.1-5.7-13.1-5.7s-9.8,2-13.2,5.7c-3.6,3.8-5.4,8.9-5.4,15.3s1.8,11.5,5.5,15.3c3.4,3.7,8.2,5.7,13.2,5.7h0s0,0,0,0ZM445.4,143.7c-6.2,0-11.4-1.8-15.6-5.3s-6.2-8.2-6.3-14.1c0-6.3,2.5-11.3,7.4-14.9s11-5.4,18.2-5.4,11.7,1.2,15.8,3.6v-1.7c.2-3.9-1.5-7.7-4.4-10.2-3-2.6-6.9-3.9-10.8-3.8-3,0-6,.7-8.6,2.2-2.5,1.4-4.3,3.5-5.3,6.2l-10-4.3c1.4-3.5,4-6.7,8-9.7s9.2-4.5,15.7-4.4c7.5,0,13.7,2.2,18.6,6.5,5,4.3,7.4,10.4,7.4,18.4v35.1h-10.5v-8h-.5c-4.4,6.6-10.8,9.9-19.2,9.9h0ZM447.2,133.7c4.6,0,9-1.8,12.4-5,3.5-3,5.6-7.3,5.6-11.9-3.1-2.5-7.8-3.8-14-3.8s-9.3,1.1-12,3.4c-2.5,1.9-4,4.9-4.1,8,0,2.7,1.4,5.3,3.7,6.8,2.5,1.7,5.4,2.5,8.4,2.5h0s0,0,0,0ZM507.9,143.7c-6.5,0-11.9-1.6-16.2-4.7-4.1-3-7.4-7.1-9.3-11.8l9.8-4c3.1,7.3,8.4,10.9,15.8,10.9,3,.1,5.9-.7,8.4-2.2,2.1-1.3,3.3-3.5,3.3-5.9,0-3.8-2.7-6.4-8-7.7l-11.8-2.8c-3.9-1-7.5-2.9-10.6-5.4-3.3-2.6-5.2-6.5-5-10.7,0-5.1,2.3-9.3,6.9-12.5,4.8-3.3,10.5-4.9,16.3-4.8,4.8,0,9.6,1.1,13.8,3.5,4,2.2,7.1,5.8,8.7,10l-9.5,3.9c-2.1-5.1-6.6-7.7-13.4-7.7-2.9,0-5.7.6-8.2,2-2.1,1.1-3.3,3.2-3.3,5.4,0,3.3,2.6,5.6,7.8,6.8l11.6,2.7c5.5,1.2,9.5,3.4,12.2,6.5,2.5,2.9,3.9,6.6,3.9,10.4,0,5.1-2.3,9.9-6.4,13-4.3,3.5-9.8,5.2-16.6,5.2h0ZM567,143.7c-8.8,0-16-2.9-21.5-8.8s-8.3-13.2-8.3-22.1c-.2-8,2.7-15.8,8.1-21.8,5.1-6,12.7-9.3,20.6-9.1,8.7,0,15.6,2.8,20.8,8.4,5.2,5.6,7.8,13.1,7.8,22.5v2h-46.3c.3,5.8,2.3,10.5,5.9,13.9,3.4,3.3,8,5.1,12.7,5.1,7.9,0,13.2-3.3,16-9.9l9.8,4c-2,4.6-5.3,8.5-9.4,11.3-4.4,3-9.8,4.5-16.1,4.5h0ZM582.7,105.7c-.2-3.3-1.8-6.5-4.6-9.5s-7-4.5-12.6-4.4c-3.9,0-7.6,1.3-10.6,3.8-3.1,2.7-5.2,6.2-6.1,10.2h33.9c0,0,0,0,0,0Z"/>
  <path class="st0" d="M8.6,148.3L28.8,19.2c.2-1.6,1.5-2.8,3.1-3.1s3.2.5,3.9,1.9l20.9,38.9,8.3-15.8c.6-1.2,1.9-2,3.3-2s2.7.8,3.3,2l56.3,107.3H8.6Z"/>
  <path class="st5" d="M78.4,98l-21.7-41.1L8.6,148.3l69.7-50.3Z"/>
  <path class="st6" d="M127.9,148.3l-15.5-95.7c-.2-1.4-1.2-2.5-2.5-2.9s-2.8,0-3.8.9L8.6,148.3l54,30.3c3.4,1.9,7.5,1.9,10.9,0l54.4-30.3h0Z"/>
  <path class="st4" d="M112.5,52.6c-.2-1.4-1.2-2.5-2.5-2.9s-2.8,0-3.8.9l-19.4,19.4-15.2-29c-.6-1.2-1.9-2-3.3-2s-2.7.8-3.3,2l-8.3,15.8-20.9-38.9c-.8-1.4-2.3-2.2-3.9-1.9s-2.8,1.5-3.1,3.1L8.6,148.3h0,0c0,0,.5.3.5.3L106.1,51.6c1-1,2.4-1.3,3.8-.9s2.3,1.6,2.5,2.9l15.3,94.8h.1c0,0-15.5-95.8-15.5-95.8h0ZM8.8,148.1L28.8,20.1c.2-1.6,1.5-2.8,3.1-3.1s3.2.5,3.9,1.9l20.9,38.9,8.3-15.8c.6-1.2,1.9-2,3.3-2s2.7.8,3.3,2l14.9,28.4L8.8,148.1h0Z"/>
  <path class="st2" d="M73.5,177.7c-3.4,1.9-7.5,1.9-10.9,0l-53.8-30.2v.8c-.1,0,53.8,30.3,53.8,30.3,3.4,1.9,7.5,1.9,10.9,0l54.4-30.3v-.9c-.1,0-54.4,30.2-54.4,30.2h0Z"/>
  <path id="b" class="st3" d="M112.3,52.7c-.2-1.4-1.2-2.5-2.5-2.9s-2.8,0-3.8.9l-19.3,19.4-15.2-29c-.6-1.2-1.9-2-3.3-2s-2.6.8-3.3,2l-8.3,15.8-20.8-38.9c-.8-1.4-2.3-2.2-3.9-1.9s-2.8,1.5-3,3.1L8.8,148.3l53.8,30.2c3.4,1.9,7.5,1.9,10.9,0l54.2-30.2-15.4-95.6h0Z"/>
</svg>