<?xml version="1.0" encoding="UTF-8"?>
<svg id="Layer_1" xmlns="http://www.w3.org/2000/svg" xmlns:xlink="http://www.w3.org/1999/xlink" version="1.1" viewBox="0 0 469 132">
  <!-- Generator: Adobe Illustrator 29.4.0, SVG Export Plug-In . SVG Version: 2.1.0 Build 152)  -->
  <defs>
    <style>
      .st0 {
        fill: #ffa000;
      }

      .st1 {
        opacity: .5;
      }

      .st1, .st2 {
        isolation: isolate;
      }

      .st3 {
        fill: url(#linear-gradient);
      }

      .st2 {
        fill: #a52714;
        opacity: .2;
      }

      .st4 {
        fill: #fff;
        fill-opacity: .2;
      }

      .st5 {
        fill: #f57c00;
      }

      .st6 {
        fill: #ffca28;
      }
    </style>
    <linearGradient id="linear-gradient" x1="-15.1" y1="315.5" x2="-14.1" y2="314.7" gradientTransform="translate(1434 41350) scale(95 -131)" gradientUnits="userSpaceOnUse">
      <stop offset="0" stop-color="#fff" stop-opacity=".1"/>
      <stop offset=".1" stop-color="#fff" stop-opacity="0"/>
      <stop offset=".6" stop-color="#fff" stop-opacity="0"/>
      <stop offset="1" stop-color="#fff" stop-opacity="0"/>
    </linearGradient>
  </defs>
  <path class="st1" d="M140.8,100.5h-8.8V32.8h39.8v8.3h-31.1v22.2h28v8.1h-28v29.1h0ZM188.3,42.5c-2.1,2.1-5.4,2.4-7.8.8s-3.4-4.8-2.3-7.5,4-4.3,6.9-3.7,5,3.1,5,6c0,1.6-.6,3.2-1.8,4.4h0,0ZM188.3,100.5h-8.8v-46.4h8.8v46.4h0ZM207.6,100.5h-8.8v-46.4h8.4v7.6h.4c1-2.7,3-4.9,5.5-6.2,2.4-1.5,5.2-2.4,8.1-2.5,2.2,0,4.5.3,6.6,1.1l-3.3,8.1c-1.5-.5-3.1-.7-4.7-.7-3.2,0-6.3,1.4-8.4,3.7-2.4,2.5-3.7,5.8-3.7,9.8v25.4s0,0,0,0ZM251.7,102c-7.1,0-12.8-2.3-17.2-7s-6.6-10.6-6.6-17.7c-.1-6.4,2.2-12.6,6.4-17.4,4.1-4.8,10.1-7.5,16.4-7.3,6.9,0,12.5,2.2,16.6,6.7,4.2,4.5,6.2,10.5,6.2,18v1.6h-37c.3,4.7,1.8,8.4,4.7,11.1,2.7,2.6,6.4,4.1,10.1,4.1,6.3,0,10.5-2.7,12.8-7.9l7.8,3.2c-1.6,3.7-4.2,6.8-7.5,9-3.5,2.4-7.8,3.6-12.9,3.6h0ZM264.3,71.7c-.2-2.7-1.4-5.2-3.7-7.6s-5.6-3.6-10.1-3.5c-3.1,0-6.1,1-8.4,3-2.5,2.1-4.2,5-4.9,8.1h27.1c0,0,0,0,0,0ZM305.4,102c-3.3,0-6.6-.7-9.5-2.2-2.6-1.3-4.8-3.3-6.3-5.7h-.4v6.4h-8.4V32.8h8.8v21.4l-.4,6.4h.4c1.6-2.4,3.8-4.4,6.3-5.7,2.9-1.5,6.2-2.3,9.5-2.3,6,0,11.3,2.4,15.6,7.1s6.6,10.6,6.6,17.6-2.2,12.9-6.6,17.6-9.6,7.1-15.6,7.1h0ZM303.9,94c4,0,7.8-1.6,10.5-4.6,2.9-3.1,4.4-7.1,4.4-12.2s-1.5-9.1-4.4-12.2c-2.7-2.9-6.5-4.6-10.5-4.6s-7.8,1.6-10.5,4.5c-2.9,3-4.3,7.1-4.3,12.2s1.5,9.2,4.4,12.2c2.7,2.9,6.5,4.6,10.5,4.5h0s0,0,0,0ZM349.9,102c-5,0-9.1-1.4-12.4-4.3s-5-6.6-5-11.3c0-5,2-9,5.9-11.9s8.8-4.3,14.6-4.3,9.4.9,12.7,2.8v-1.3c.1-3.1-1.2-6.1-3.5-8.2-2.4-2.1-5.5-3.1-8.7-3-2.4,0-4.8.6-6.9,1.8-2,1.1-3.5,2.8-4.2,4.9l-8-3.4c1.1-2.8,3.2-5.4,6.4-7.7s7.4-3.6,12.6-3.5c6,0,10.9,1.7,14.9,5.2s5.9,8.3,5.9,14.7v28.1h-8.4v-6.4h-.4c-3.5,5.3-8.6,7.9-15.3,7.9h0ZM351.3,94c3.7,0,7.2-1.4,9.9-4,2.8-2.4,4.5-5.8,4.5-9.5-2.5-2-6.2-3-11.2-3s-7.5.9-9.6,2.7c-2,1.5-3.2,3.9-3.2,6.4,0,2.2,1.1,4.2,3,5.4,2,1.3,4.3,2,6.7,2h0s0,0,0,0ZM399.9,102c-5.2,0-9.5-1.3-12.9-3.8-3.3-2.4-5.9-5.7-7.4-9.5l7.8-3.2c2.5,5.8,6.7,8.7,12.7,8.7,2.4,0,4.7-.5,6.7-1.8,1.6-1,2.6-2.8,2.6-4.7,0-3-2.1-5.1-6.4-6.2l-9.4-2.3c-3.1-.8-6-2.3-8.5-4.3-2.6-2-4.1-5.2-4-8.6,0-4.1,1.8-7.4,5.5-10,3.8-2.6,8.4-3.9,13-3.8,3.9,0,7.7.9,11.1,2.8,3.2,1.8,5.6,4.6,7,8l-7.6,3.1c-1.7-4.1-5.3-6.2-10.7-6.2-2.3,0-4.6.5-6.6,1.6-1.6.8-2.7,2.5-2.7,4.4,0,2.7,2.1,4.5,6.2,5.4l9.2,2.2c4.4,1,7.6,2.7,9.7,5.2,2,2.3,3.2,5.3,3.1,8.3,0,4.1-1.9,7.9-5.1,10.4-3.4,2.8-7.8,4.2-13.2,4.2h0ZM447.1,102c-7.1,0-12.8-2.3-17.2-7s-6.6-10.6-6.6-17.7c-.1-6.4,2.2-12.6,6.4-17.4,4.1-4.8,10.2-7.4,16.5-7.3,7,0,12.5,2.2,16.6,6.7,4.1,4.5,6.2,10.5,6.2,18v1.6h-37c.3,4.7,1.8,8.4,4.7,11.1,2.7,2.6,6.4,4.1,10.2,4.1,6.3,0,10.5-2.7,12.8-7.9l7.8,3.2c-1.6,3.7-4.2,6.8-7.5,9-3.5,2.4-7.8,3.6-12.9,3.6h0ZM459.6,71.7c-.2-2.7-1.4-5.2-3.7-7.6s-5.6-3.6-10.1-3.5c-3.1,0-6.1,1-8.4,3-2.5,2.1-4.2,5-4.9,8.1h27.1c0,0,0,0,0,0Z"/>
  <path class="st0" d="M.8,105.7L17,2.5c.2-1.3,1.2-2.3,2.4-2.5s2.5.4,3.1,1.5l16.7,31.1,6.7-12.7c.5-1,1.5-1.6,2.6-1.6s2.1.6,2.6,1.6l45,85.7H.8Z"/>
  <path class="st5" d="M56.6,65.5l-17.4-32.9L.8,105.7l55.7-40.2Z"/>
  <path class="st6" d="M96.2,105.7l-12.4-76.5c-.2-1.1-1-2-2-2.3s-2.2,0-3,.7L.8,105.7l43.1,24.2c2.7,1.5,6,1.5,8.7,0l43.5-24.2h0Z"/>
  <path class="st4" d="M83.8,29.3c-.2-1.1-1-2-2-2.3s-2.2,0-3,.7l-15.5,15.5-12.2-23.2c-.5-1-1.5-1.6-2.6-1.6s-2.1.6-2.6,1.6l-6.7,12.7L22.5,1.5c-.6-1.1-1.9-1.7-3.1-1.5s-2.2,1.2-2.4,2.5L.8,105.7h0,0c0,0,.4.3.4.3L78.7,28.4c.8-.8,2-1.1,3-.7s1.8,1.2,2,2.3l12.3,75.8h.1c0,0-12.4-76.5-12.4-76.5h0ZM1,105.6L17,3.2c.2-1.3,1.2-2.3,2.4-2.5s2.5.4,3.1,1.5l16.7,31.1,6.7-12.7c.5-1,1.5-1.6,2.6-1.6s2.1.6,2.6,1.6l11.9,22.7L1,105.6h0Z"/>
  <path class="st2" d="M52.7,129.2c-2.7,1.5-6,1.5-8.7,0L.9,105.1v.7c-.1,0,43,24.2,43,24.2,2.7,1.5,6,1.5,8.7,0l43.5-24.2v-.7c-.1,0-43.5,24.1-43.5,24.1h0Z"/>
  <path id="b" class="st3" d="M83.7,29.3c-.2-1.1-1-2-2-2.3s-2.2,0-3,.7l-15.4,15.5-12.1-23.1c-.5-1-1.5-1.6-2.6-1.6s-2.1.6-2.6,1.6l-6.6,12.7L22.6,1.6c-.6-1.1-1.9-1.7-3.1-1.5s-2.2,1.2-2.4,2.5L1,105.7l43,24.2c2.7,1.5,6,1.5,8.7,0l43.3-24.2-12.3-76.4h0Z"/>
</svg>