<?xml version="1.0" encoding="UTF-8"?>
<svg id="svg1936" xmlns="http://www.w3.org/2000/svg" xmlns:svg="http://www.w3.org/2000/svg" version="1.1" viewBox="0 0 603 182">
  <!-- Generator: Adobe Illustrator 29.4.0, SVG Export Plug-In . SVG Version: 2.1.0 Build 152)  -->
  <defs>
    <style>
      .st0 {
        fill: #4285f4;
      }

      .st1 {
        fill: #fbbc05;
      }

      .st2 {
        fill: #34a853;
      }

      .st3 {
        fill: #ea4335;
      }
    </style>
  </defs>
  <path class="st0" d="M95.9,67.5v18.7h44.6c-1.4,10.5-4.9,18.1-10.2,23.5-6.5,6.5-16.7,13.6-34.4,13.6-27.4,0-48.9-22.1-48.9-49.6s21.5-49.6,48.9-49.6,25.6,5.8,33.6,13.3l13.1-13.1c-11.1-10.8-25.9-19-46.7-19-37.6,0-69.2,30.6-69.2,68.2s31.6,68.2,69.2,68.2,35.6-6.7,47.6-19.1c12.3-12.3,16.2-29.6,16.2-43.6s-.3-8.3-1-11.7h-62.8Z"/>
  <path class="st3" d="M215.4,52.3c-24.3,0-44.2,18.5-44.2,44.1s19.9,44.1,44.2,44.1,44.2-18.7,44.2-44.1-19.9-44.1-44.2-44.1ZM215.4,123.1c-13.3,0-24.9-11-24.9-26.7s11.5-26.7,24.9-26.7,24.9,10.8,24.9,26.7-11.5,26.7-24.9,26.7Z"/>
  <path class="st0" d="M432.1,62.2h-.7c-4.3-5.2-12.7-9.9-23.2-9.9-22,0-41.2,19.2-41.2,44.1s19.2,44.1,41.2,44.1,18.9-4.7,23.2-10h.7v6.1c0,16.8-9,25.9-23.5,25.9s-19.2-8.5-22.2-15.7l-16.8,7c4.9,11.7,17.7,26,39.1,26s41.9-13.3,41.9-45.9V54.6h-18.4v7.6ZM409.9,123.1c-13.3,0-23.5-11.4-23.5-26.7s10.2-26.7,23.5-26.7,23.5,11.4,23.5,26.8c0,15.4-10.3,26.5-23.5,26.5Z"/>
  <path class="st1" d="M314,52.3c-24.3,0-44.2,18.5-44.2,44.1s19.9,44.1,44.2,44.1,44.2-18.7,44.2-44.1-19.9-44.1-44.2-44.1ZM314,123.1c-13.3,0-24.9-11-24.9-26.7s11.5-26.7,24.9-26.7,24.9,10.8,24.9,26.7-11.5,26.7-24.9,26.7Z"/>
  <path class="st2" d="M465.6,7.2h19v133.2h-19V7.2Z"/>
  <path class="st3" d="M543.4,123.1c-9.9,0-16.8-4.5-21.4-13.3l58.9-24.3-2-5c-3.6-9.9-14.9-28.1-37.7-28.1s-41.6,17.8-41.6,44.1,18.7,44.1,43.7,44.1,31.8-12.4,36.7-19.5l-15-10c-5,7.3-11.8,12.1-21.7,12.1h0ZM542.1,68.8c7.8,0,14.5,4,16.7,9.7l-39.8,16.5c0-18.5,13.1-26.2,23.1-26.2Z"/>
</svg>