<?xml version="1.0" encoding="UTF-8"?>
<svg id="Layer_1" xmlns="http://www.w3.org/2000/svg" xmlns:xlink="http://www.w3.org/1999/xlink" version="1.1" viewBox="0 0 780.7 315.5">
  <!-- Generator: Adobe Illustrator 29.4.0, SVG Export Plug-In . SVG Version: 2.1.0 Build 152)  -->
  <defs>
    <style>
      .st0 {
        fill: none;
      }

      .st1 {
        fill: #05bdba;
      }

      .st2 {
        fill: #014847;
      }

      .st3 {
        clip-path: url(#clippath);
      }
    </style>
    <clipPath id="clippath">
      <rect class="st0" x="1.8" y="1.3" width="776.7" height="315.7"/>
    </clipPath>
  </defs>
  <g class="st3">
    <g>
      <path class="st1" d="M180,315.4v-79.5l1.7-1.7h16.6l1.7,1.7v79.5l-1.7,1.7h-16.6l-1.7-1.7Z"/>
      <path class="st1" d="M180,82.5V3l1.7-1.7h16.6l1.7,1.7v79.5l-1.7,1.7h-16.6l-1.7-1.7Z"/>
      <path class="st1" d="M107.9,258h-2.3l-11.7-11.7v-2.3l27.4-27.3h12.4s1.7,1.7,1.7,1.7v12.4l-27.4,27.3Z"/>
      <path class="st1" d="M107.9,60.3h-2.3l-11.7,11.7v2.3l27.4,27.3h12.4s1.7-1.7,1.7-1.7v-12.4l-27.4-27.3Z"/>
      <path class="st1" d="M3.5,149.2h112.7l1.7,1.7v16.6l-1.7,1.7H3.5l-1.7-1.7v-16.6l1.7-1.7Z"/>
      <path class="st1" d="M670.8,149.2h106.1l1.7,1.7v16.6l-1.7,1.7h-112.7l-1.7-1.7,6.6-16.6,1.7-1.7Z"/>
      <path class="st2" d="M323.5,166.2l-1.7,1.7h-51.4l-1.7,1.7c0,3.3,3.3,13.3,16.6,13.3s9.9-1.7,11.6-5l1.7-1.7h19.9l1.7,1.7c-1.7,9.9-9.9,24.9-34.8,24.9s-41.5-19.9-41.5-43.1,13.3-43.1,39.8-43.1,39.8,19.9,39.8,43.1v6.6h0ZM298.6,149.6c0-1.7-1.7-13.3-14.9-13.3s-14.9,11.6-14.9,13.3l1.7,1.7h26.5l1.7-1.7Z"/>
      <path class="st2" d="M369.9,176.2c0,3.3,1.7,5,5,5h14.9l1.7,1.7v16.6l-1.7,1.7h-14.9c-14.9,0-28.2-6.6-28.2-24.9v-36.5l-1.7-1.7h-11.6l-1.7-1.7v-16.6l1.7-1.7h11.6l1.7-1.7v-14.9l1.7-1.7h19.9l1.7,1.7v14.9l1.7,1.7h18.2l1.7,1.7v16.6l-1.7,1.7h-18.2l-1.7,1.7v36.5h0Z"/>
      <path class="st2" d="M431.3,201h-19.9l-1.7-1.7v-112.7l1.7-1.7h19.9l1.7,1.7v112.7l-1.7,1.7Z"/>
      <path class="st2" d="M476,104.9h-19.9l-1.7-1.7v-16.6l1.7-1.7h19.9l1.7,1.7v16.6l-1.7,1.7ZM476,201h-19.9l-1.7-1.7v-79.6l1.7-1.7h19.9l1.7,1.7v79.6l-1.7,1.7Z"/>
      <path class="st2" d="M553.9,86.6v16.6l-1.7,1.7h-14.9c-3.3,0-5,1.7-5,5v6.6l1.7,1.7h16.6l1.7,1.7v16.6l-1.7,1.7h-16.6l-1.7,1.7v59.7l-1.7,1.7h-19.9l-1.7-1.7v-59.7l-1.7-1.7h-11.6l-1.7-1.7v-16.6l1.7-1.7h11.6l1.7-1.7v-6.6c0-18.2,13.3-24.9,28.2-24.9h14.9l1.7,1.7h0Z"/>
      <path class="st2" d="M615.3,202.7c-6.6,16.6-13.3,26.5-36.5,26.5h-8.3l-1.7-1.7v-16.6l1.7-1.7h8.3c8.3,0,9.9-1.7,11.6-6.6v-1.7l-26.5-64.7v-16.6l1.7-1.7h14.9l1.7,1.7,19.9,56.4h1.7l19.9-56.4,1.7-1.7h14.9l1.7,1.7v16.6l-26.5,66.3h0Z"/>
      <path class="st2" d="M207.3,201l-1.7-1.7v-48c0-8.3-3.2-14.7-13.3-14.9-5.1-.1-11,0-17.3.3l-.9,1v61.7s-1.6,1.7-1.6,1.7h-19.9l-1.7-1.7v-80.5l1.7-1.7,44.8-.4c22.4,0,31.5,15.4,31.5,32.8v49.7l-1.7,1.7h-19.9Z"/>
    </g>
  </g>
</svg>