<?xml version="1.0" encoding="utf-8"?>
<!-- Generator: Adobe Illustrator 29.4.0, SVG Export Plug-In . SVG Version: 9.03 Build 0)  -->
<svg version="1.0" id="Layer_1" xmlns="http://www.w3.org/2000/svg" xmlns:xlink="http://www.w3.org/1999/xlink" x="0px" y="0px"
	 viewBox="0 0 940 256" style="enable-background:new 0 0 940 256;" xml:space="preserve">
<style type="text/css">
	.st0{fill:none;}
</style>
<path d="M471,71.5c-35.9,0-61.7,23.4-61.7,58.5s29.1,58.5,64.9,58.5c21.6,0,40.8-8.6,52.6-23l-24.8-14.3
	c-6.5,7.2-16.5,11.3-27.7,11.3c-15.6,0-28.8-8.2-33.7-21.1h91c0.8-3.8,1.1-7.6,1.1-11.3C532.8,94.9,507,71.5,471,71.5z M440.3,118.6
	c4-13,15.2-21.1,30.7-21.1c15.5,0,26.7,8.2,30.7,21.1H440.3z M433,35.8l-90,155.9L253,35.8h33.7l56.3,97.4l56.3-97.4L433,35.8
	L433,35.8z M128.8,19.6l120.1,207.9H8.8L128.8,19.6z M663.3,130c0,19.5,12.7,32.5,32.5,32.5c13.3,0,23.4-6,28.6-16l25,14.3
	c-10.3,17.2-29.7,27.6-53.5,27.6c-35.9,0-61.7-23.4-61.7-58.5s25.8-58.5,61.7-58.5c23.8,0,43.2,10.3,53.5,27.6l-24.9,14.3
	c-5.2-9.9-15.2-16-28.6-16C676.1,97.6,663.3,110.5,663.3,130z M931.2,35.8v149.4H902V35.8H931.2z M820.9,71.5
	c-35.9,0-61.7,23.4-61.7,58.5s29.1,58.5,64.9,58.5c21.6,0,40.8-8.6,52.6-23L852,151.2c-6.5,7.2-16.5,11.3-27.7,11.3
	c-15.6,0-28.8-8.2-33.7-21.1h91c0.8-3.8,1.1-7.6,1.1-11.3C882.5,94.9,856.7,71.5,820.9,71.5z M790.2,118.6c4-13,15.1-21.1,30.7-21.1
	c15.6,0,26.7,8.2,30.7,21.1H790.2z M624.4,74.8v31.5c-3.4-1-6.9-1.5-10.4-1.6c-18.9,0-32.5,13-32.5,32.5v48.1h-29.2V74.8h29.2v29.8
	C581.5,88.1,600.6,74.8,624.4,74.8z"/>
<rect x="-20.8" y="-7.4" class="st0" width="981.6" height="261.8"/>
</svg>
