<?xml version="1.0" encoding="UTF-8" standalone="no"?>
<svg
   version="1.1"
   width="1000"
   height="387.17618"
   viewBox="0 0 1000 387.17618"
   id="svg1"
   xmlns="http://www.w3.org/2000/svg"
   xmlns:svg="http://www.w3.org/2000/svg">
  <defs
     id="defs3" />
  <path
     d="M 1000,0 H 944.76089 C 929.43719,0 915.11168,7.5881887 906.50912,20.278242 L 832.63111,129.25773 C 830.66498,132.14764 826.4,132.14764 824.42782,129.25773 L 750.55587,20.278242 C 741.9654,7.5881887 727.62779,0 712.3041,0 H 657.06499 L 788.66245,194.12906 657.79094,387.17618 H 713.03005 C 728.35375,387.17618 742.67926,379.58753 751.28182,366.89784 L 824.42782,258.99978 C 826.4,256.10987 830.66498,256.10987 832.63111,258.99978 L 905.77711,366.89784 C 914.36758,379.58753 928.71123,387.17618 944.03493,387.17618 H 999.27404 L 868.39649,194.12906 Z"
     id="path1" />
  <path
     d="M 543.41431,39.603946 V 387.17618 H 569.81547 C 591.69454,387.17618 609.4242,369.44836 609.4242,347.57171 V 0 H 583.02361 C 561.14394,0 543.41431,17.727358 543.41431,39.603946 Z"
     id="path2" />
  <path
     d="M 495.02639,7.3847755e-4 H 471.53207 C 445.66449,7.3847755e-4 423.25184,17.889548 417.51982,43.108191 L 364.96009,274.16074 318.95694,58.478348 C 310.44693,18.616048 269.54603,-8.2655759 227.69232,3.2943415 201.03344,10.656497 181.26932,33.178943 175.50463,60.22197 L 129.96912,273.87036 77.506779,43.124343 C 71.758427,17.90564 49.346025,7.3847755e-4 23.478137,7.3847755e-4 H 0 L 88.051273,387.16045 H 121.41132 C 151.68726,387.16045 177.84584,365.99402 184.15922,336.38414 L 240.44855,72.233982 C 241.14305,68.956296 244.08196,66.583028 247.42437,66.583028 250.76679,66.583028 253.7057,68.956296 254.40019,72.233982 L 310.73792,336.40048 C 317.05131,366.01036 343.20988,387.16045 373.48582,387.16045 H 406.959 Z"
     id="path3" />
</svg>
