<?xml version="1.0" encoding="UTF-8"?>
<svg id="Layer_1" xmlns="http://www.w3.org/2000/svg" version="1.1" viewBox="0 0 128 128">
  <!-- Generator: Adobe Illustrator 29.4.0, SVG Export Plug-In . SVG Version: 2.1.0 Build 152)  -->
  <defs>
    <style>
      .st0 {
        fill: #fff;
      }

      .st1 {
        fill: #22b9e2;
      }
    </style>
  </defs>
  <rect class="st1" width="127" height="128" rx="9" ry="9"/>
  <g>
    <g>
      <line class="st0" x1="85" y1="82.5" x2="34.3" y2="82.5"/>
      <path class="st0" d="M34.3,79.6h50.7c1,0,1.9,1.3,1.9,2.9s-.8,2.9-1.9,2.9h-50.7c-1,0-1.9-1.3-1.9-2.9s.8-2.9,1.9-2.9Z"/>
    </g>
    <g>
      <line class="st0" x1="74" y1="100.9" x2="23.2" y2="100.9"/>
      <path class="st0" d="M23.2,98h50.7c1,0,1.9,1.3,1.9,2.9s-.8,2.9-1.9,2.9H23.2c-1,0-1.9-1.3-1.9-2.9s.8-2.9,1.9-2.9Z"/>
    </g>
    <g>
      <line class="st0" x1="105.4" y1="64.1" x2="45.3" y2="63.9"/>
      <path class="st0" d="M45.3,61l60.1.2c1,0,1.9,1.3,1.9,2.9s-.8,2.9-1.9,2.9l-60.1-.2c-1,0-1.9-1.3-1.9-2.9s.8-2.9,1.9-2.9Z"/>
    </g>
    <g>
      <line class="st0" x1="85.7" y1="45.5" x2="34.9" y2="45.5"/>
      <path class="st0" d="M34.9,42.6h50.7c1,0,1.9,1.3,1.9,2.9s-.8,2.9-1.9,2.9h-50.7c-1,0-1.9-1.3-1.9-2.9s.8-2.9,1.9-2.9Z"/>
    </g>
    <g>
      <line class="st0" x1="77.1" y1="27.1" x2="22.6" y2="27.1"/>
      <path class="st0" d="M22.6,24.2h54.5c1,0,1.9,1.3,1.9,2.9s-.8,2.9-1.9,2.9H22.6c-1,0-1.9-1.3-1.9-2.9s.8-2.9,1.9-2.9Z"/>
    </g>
  </g>
</svg>